<?xml version="1.0" encoding="UTF-8"?>
<svg width="140px" height="38px" viewBox="0 0 140 38" version="1.1" xmlns="http://www.w3.org/2000/svg" xmlns:xlink="http://www.w3.org/1999/xlink">
    <title>编组</title>
    <defs>
        <polygon id="path-1" points="0 4.00716965e-15 21.6018852 4.00716965e-15 21.6018852 20.6580999 0 20.6580999"></polygon>
        <polygon id="path-3" points="0 37.1203448 140 37.1203448 140 0 0 0"></polygon>
    </defs>
    <g id="页面-1" stroke="none" stroke-width="1" fill="none" fill-rule="evenodd">
        <g id="Homepage" transform="translate(-294.000000, -32.000000)">
            <g id="编组" transform="translate(294.000000, 32.000000)">
                <path d="M19.5971238,1.14173498 L19.5971238,4.54071583 L0.000112791798,15.6422486 L0.000112791798,11.2100949 C0.000112791798,9.83290701 0.734951359,8.55892364 1.92885254,7.86863784 L14.6607908,0.518560293 C15.8546919,-0.172289472 17.324933,-0.172289472 18.5188342,0.518560293 L19.5971238,1.14173498 Z" id="Fill-1" fill="#393F97"></path>
                <g transform="translate(11.578191, 16.462245)">
                    <mask id="mask-2" fill="white">
                        <use xlink:href="#path-1"></use>
                    </mask>
                    <g id="Clip-4"></g>
                    <path d="M21.6018852,4.00716965e-15 L21.6018852,9.44856895 C21.6018852,10.8251929 20.8664827,12.0991762 19.6725815,12.790026 L6.94064332,20.1401035 C5.74674213,20.8309533 4.27650104,20.8309533 3.08259985,20.1401035 L0,18.3585571 L0,12.6603154 L21.6018852,4.00716965e-15 Z" id="Fill-3" fill="#393F97" mask="url(#mask-2)"></path>
                </g>
                <path d="M41.7330782,8.80802433 C41.7330782,10.9149751 40.0271023,12.621515 37.9195875,12.621515 C37.2563717,12.621515 36.6365808,12.456839 36.0929243,12.1579407 L13.805265,25.2338939 L13.805265,10.380906 L17.3694858,8.36306069 L17.3694858,19.0145542 L34.1241435,9.1824931 C34.1106085,9.06180588 34.1021491,8.93322323 34.1021491,8.80802433 C34.1021491,6.70107354 35.8126367,4.99453363 37.9195875,4.99453363 C40.0271023,4.99453363 41.7330782,6.70107354 41.7330782,8.80802433" id="Fill-5" fill="#09CEFB"></path>
                <path d="M31.5939415,8.09591331 L19.5974058,15.1301738 L19.5974058,1.14173498 L31.2510544,7.86863784 C31.3711777,7.94026063 31.4828415,8.01526718 31.5939415,8.09591331" id="Fill-7" fill="#393F97"></path>
                <path d="M11.5783037,18.2973111 L11.5783037,34.8207456 L1.92896534,29.2522145 C0.734500191,28.5613648 0.000225583597,27.2873814 0.000225583597,25.9107575 L0.000225583597,24.8550263 L11.5783037,18.2973111 Z" id="Fill-9" fill="#393F97"></path>
                <polygon id="Fill-11" fill="#09CEFB" points="13.8055469 10.3809624 13.8055469 14.4753046 0.000394771294 22.2934681 0.000394771294 18.1991259"></polygon>
                <path d="M62.3445387,14.3528691 C62.9981671,14.8942698 63.3252633,15.6691494 63.3252633,16.6763802 C63.3252633,17.668948 62.9981671,18.4438277 62.3445387,18.9998912 C61.6903462,19.5565188 60.7158251,19.8345505 59.4226671,19.8345505 L55.9937965,19.8345505 L55.9937965,13.5407682 L59.4226671,13.5407682 C60.7158251,13.5407682 61.6903462,13.8114685 62.3445387,14.3528691 M63.1560757,21.5828234 C64.1565389,21.1395517 64.9269069,20.5000222 65.4683075,19.6653628 C66.0102721,18.8301396 66.2804085,17.834752 66.2804085,16.6763802 C66.2804085,15.5180084 66.0102721,14.5186731 65.4683075,13.6761184 C64.9269069,12.8341276 64.1565389,12.1872666 63.1560757,11.7360994 C62.1561764,11.2849322 60.9566356,11.0593486 59.5585812,11.0593486 L53.0612097,11.0593486 L53.0612097,26.8502004 L55.9937965,26.8502004 L55.9937965,22.248295 L59.5585812,22.248295 C59.7695019,22.248295 59.9668876,22.2336321 60.1687849,22.2234808 L63.3929384,26.8502004 L66.5516727,26.8502004 L62.9209048,21.6702371 C62.9981671,21.6397833 63.082197,21.616661 63.1560757,21.5828234" id="Fill-13" fill="#FFFFFF"></path>
                <path d="M71.4802232,18.6277347 C71.7740458,18.0942295 72.1795323,17.6763359 72.6983746,17.3757457 C73.2172169,17.0751556 73.8223449,16.9240146 74.5143225,16.9240146 C75.1910733,16.9240146 75.7888699,17.0751556 76.3082761,17.3757457 C76.8265544,17.6763359 77.2359886,18.0902818 77.5371427,18.6158916 C77.7491913,18.9886685 77.8789019,19.4031783 77.9336059,19.8571653 L71.0899635,19.8571653 C71.153127,19.4048702 71.2800177,18.9926162 71.4802232,18.6277347 M77.6499345,15.4357268 C76.7323733,14.92478 75.6873572,14.6681786 74.5143225,14.6681786 C73.3108341,14.6681786 72.2398759,14.9315475 71.2997563,15.4582852 C70.3602006,15.9844589 69.6225422,16.7102741 69.089037,17.6351669 C68.5549679,18.5600596 68.2882153,19.6242502 68.2882153,20.8266108 C68.2882153,22.0154364 68.5622993,23.0756793 69.1115954,24.0079035 C69.6603275,24.9401277 70.4346432,25.6738383 71.4351064,26.2073436 C72.4350057,26.7414127 73.6046567,27.0081653 74.9429314,27.0081653 C75.9952789,27.0081653 76.9314508,26.8395416 77.7514472,26.5006022 C78.5708796,26.1622268 79.2515781,25.6772221 79.7929787,25.045588 L78.2821326,23.3085943 C77.8602912,23.7597615 77.3792342,24.0908055 76.8378336,24.3017261 C76.296433,24.5120828 75.6873572,24.6169792 75.0106065,24.6169792 C74.2283953,24.6169792 73.5364177,24.4669661 72.9352374,24.165812 C72.3340571,23.8652219 71.867663,23.436613 71.5366191,22.8799855 C71.3285182,22.5308949 71.193732,22.144583 71.1164696,21.7295092 L80.5599629,21.7295092 C80.5746259,21.594159 80.5859051,21.4514774 80.5938005,21.3009003 C80.6011319,21.1508872 80.6050797,21.0149731 80.6050797,20.8954138 C80.6050797,19.6315817 80.3417108,18.5341175 79.8155371,17.6013293 C79.2893633,16.6685412 78.5669319,15.9472376 77.6499345,15.4357268" id="Fill-15" fill="#FFFFFF"></path>
                <path d="M92.7300288,15.2324196 C91.970376,14.8568229 91.1092107,14.6684606 90.1470966,14.6684606 C89.0941852,14.6684606 88.1653447,14.8754335 87.3605752,15.2893794 C86.8157909,15.5696671 86.3651876,15.9379323 85.9963584,16.3806401 L85.9963584,14.8038108 L83.3119136,14.8038108 L83.3119136,26.8505388 L86.1317086,26.8505388 L86.1317086,20.7597817 C86.1317086,19.9471168 86.2704425,19.2743137 86.5490382,18.7408085 C86.82707,18.2067393 87.2212774,17.8046365 87.7333521,17.5333723 C88.244299,17.2632359 88.8308163,17.1273218 89.4929042,17.1273218 C90.3946746,17.1273218 91.0979315,17.3906906 91.6021108,17.9174283 C92.1057262,18.4436021 92.3578159,19.2404761 92.3578159,20.3080505 L92.3578159,26.8505388 L95.1776108,26.8505388 L95.1776108,19.9471168 C95.1776108,18.7289653 94.9593587,17.7335777 94.5234184,16.9586981 C94.0869141,16.1838184 93.4891176,15.6085802 92.7300288,15.2324196" id="Fill-17" fill="#FFFFFF"></path>
                <mask id="mask-4" fill="white">
                    <use xlink:href="#path-3"></use>
                </mask>
                <g id="Clip-20"></g>
                <polygon id="Fill-19" fill="#FFFFFF" mask="url(#mask-4)" points="98.7638825 26.8500876 101.583677 26.8500876 101.583677 10.1112208 98.7638825 10.1112208"></polygon>
                <path d="M111.362726,24.4815726 C110.81343,24.7979536 110.193639,24.9552982 109.501662,24.9552982 C108.779794,24.9552982 108.215835,24.8052851 107.809785,24.504131 C107.403734,24.2035409 107.200709,23.7974904 107.200709,23.2859796 C107.200709,22.8348124 107.365949,22.455268 107.696993,22.1467824 C108.028037,21.8382968 108.674334,21.684336 109.637012,21.684336 L112.547604,21.684336 L112.547604,23.0835183 C112.30623,23.6999255 111.912022,24.1657556 111.362726,24.4815726 M113.934943,15.9206751 C112.979033,15.0860158 111.630043,14.6686862 109.885154,14.6686862 C108.922476,14.6686862 107.993635,14.7927572 107.099196,15.0408991 C106.204757,15.2890411 105.433261,15.661254 104.786964,16.1575379 L105.892324,18.2103486 C106.344055,17.834752 106.896171,17.5409293 107.550364,17.3305726 C108.204556,17.1202159 108.870028,17.0147556 109.546778,17.0147556 C110.554009,17.0147556 111.30633,17.2442869 111.802614,17.7022216 C112.298898,18.1618482 112.547604,18.8047614 112.547604,19.6315253 L112.547604,19.8119922 L109.433987,19.8119922 C108.215835,19.8119922 107.238494,19.9699007 106.5014,20.2857177 C105.764305,20.6015348 105.234748,21.0307076 104.911599,21.5715442 C104.587323,22.1129449 104.426031,22.7220206 104.426031,23.3987714 C104.426031,24.0907491 104.609881,24.7111039 104.979275,25.259836 C105.346976,25.8091321 105.869766,26.2377409 106.546517,26.5456626 C107.223267,26.8535842 108.013374,27.0081089 108.915144,27.0081089 C109.983283,27.0081089 110.866442,26.8129791 111.565752,26.4215916 C112.05132,26.1508913 112.426353,25.7984169 112.704949,25.3748837 L112.704949,26.8502004 L115.367399,26.8502004 L115.367399,19.7894338 C115.367399,18.0451087 114.889162,16.7553344 113.934943,15.9206751" id="Fill-21" fill="#FFFFFF" mask="url(#mask-4)"></path>
                <path d="M121.197833,18.6277347 C121.491655,18.0942295 121.897142,17.6763359 122.415984,17.3757457 C122.934826,17.0751556 123.539954,16.9240146 124.231932,16.9240146 C124.908683,16.9240146 125.506479,17.0751556 126.025886,17.3757457 C126.544164,17.6763359 126.953598,18.0902818 127.254752,18.6158916 C127.466801,18.9886685 127.596512,19.4031783 127.651216,19.8571653 L120.807573,19.8571653 C120.870737,19.4048702 120.997627,18.9926162 121.197833,18.6277347 M127.367544,15.4357268 C126.449983,14.92478 125.404967,14.6681786 124.231932,14.6681786 C123.028444,14.6681786 121.957486,14.9315475 121.017366,15.4582852 C120.07781,15.9844589 119.340152,16.7102741 118.806647,17.6351669 C118.272577,18.5600596 118.005825,19.6242502 118.005825,20.8266108 C118.005825,22.0154364 118.279909,23.0756793 118.829205,24.0079035 C119.377937,24.9401277 120.152253,25.6738383 121.152716,26.2073436 C122.152615,26.7414127 123.322266,27.0081653 124.660541,27.0081653 C125.712888,27.0081653 126.64906,26.8395416 127.469057,26.5006022 C128.288489,26.1622268 128.969188,25.6772221 129.510588,25.045588 L127.999742,23.3085943 C127.577901,23.7597615 127.096844,24.0908055 126.555443,24.3017261 C126.014043,24.5120828 125.404967,24.6169792 124.728216,24.6169792 C123.946005,24.6169792 123.254027,24.4669661 122.652847,24.165812 C122.051667,23.8652219 121.585273,23.436613 121.254229,22.8799855 C121.046128,22.5308949 120.911342,22.144583 120.834079,21.7295092 L130.277573,21.7295092 C130.292235,21.594159 130.303515,21.4514774 130.31141,21.3009003 C130.318742,21.1508872 130.322689,21.0149731 130.322689,20.8954138 C130.322689,19.6315817 130.05932,18.5341175 129.533147,17.6013293 C129.006973,16.6685412 128.284541,15.9472376 127.367544,15.4357268" id="Fill-22" fill="#FFFFFF" mask="url(#mask-4)"></path>
                <path d="M137.101589,15.3001511 C136.524095,15.6148402 136.061649,16.0378094 135.71425,16.5696228 L135.71425,14.8038671 L133.029241,14.8038671 L133.029241,26.8500312 L135.849036,26.8500312 L135.849036,21.0074161 C135.849036,19.7746017 136.165417,18.8457612 136.797051,18.2220226 C137.428685,17.59772 138.278008,17.2858507 139.345582,17.2858507 C139.451042,17.2858507 139.556503,17.2892344 139.661963,17.2965659 C139.766859,17.3044613 139.879651,17.323072 140.000338,17.3535258 L140.000338,14.668517 C138.841967,14.668517 137.875905,14.8794377 137.101589,15.3001511" id="Fill-23" fill="#FFFFFF" mask="url(#mask-4)"></path>
            </g>
        </g>
    </g>
</svg>